<?xml version="1.0" encoding="UTF-8"?>
<svg id="katman_2" data-name="katman 2" xmlns="http://www.w3.org/2000/svg" viewBox="0 0 238.13 65.78">
  <defs>
    <style>
      .cls-1 {
        font-family: GothamCond-Black, Gotham;
        font-size: 40px;
        font-weight: 800;
      }

      .cls-1, .cls-2 {
        fill: #b87333;
      }

      .cls-3, .cls-4 {
        fill: #333;
      }

      .cls-4 {
        font-family: OpenSans, 'Open Sans';
        font-size: 10px;
        letter-spacing: .2em;
      }
    </style>
  </defs>
  <g id="OBJECTS">
    <g>
      <path class="cls-2" d="M17.29,20.78v10.3h15.63v34.7h10.3V31.08h19.04v2.13c0,4.6-3.75,8.35-8.35,8.35h-6.68v10.3h6.68c10.28,0,18.65-8.37,18.65-18.65v-12.43H17.29Z"/>
      <path class="cls-3" d="M10.3,33.21v-14.56c0-4.61,3.74-8.35,8.35-8.35h35.27c3.83,0,7.05,2.59,8.04,6.1h10.48C71.31,7.18,63.44,0,53.91,0H18.65C8.37,0,0,8.37,0,18.65v14.56c0,10.28,8.37,18.65,18.65,18.65h10.27v-10.3h-10.27c-4.61,0-8.35-3.75-8.35-8.35Z"/>
    </g>
  </g>
  <g id="TEXTS">
    <g>
      <text class="cls-1" transform="translate(81.12 39.89)"><tspan x="0" y="0">THERMAPEX</tspan></text>
      <text class="cls-4" transform="translate(83.83 53.81)"><tspan x="0" y="0">insulation tube systems</tspan></text>
    </g>
  </g>
</svg>