<?xml version="1.0" encoding="UTF-8"?> <svg xmlns="http://www.w3.org/2000/svg" xmlns:xlink="http://www.w3.org/1999/xlink" id="katman_2" viewBox="0 0 1057.16 292.39"><defs><style>.cls-1{fill:none;}.cls-2{fill:url(#Adsız_degrade_6);}.cls-3{clip-path:url(#clippath);}.cls-4{fill:#1d1d1b;}.cls-5{fill:url(#Adsız_degrade_6-2);}.cls-6{fill:url(#Adsız_degrade_6-5);}.cls-7{fill:url(#Adsız_degrade_6-4);}.cls-8{fill:url(#Adsız_degrade_6-3);}.cls-9{fill:url(#Adsız_degrade_6-6);}.cls-10{clip-path:url(#clippath-1);}.cls-11{clip-path:url(#clippath-4);}.cls-12{clip-path:url(#clippath-3);}.cls-13{clip-path:url(#clippath-2);}.cls-14{clip-path:url(#clippath-7);}.cls-15{clip-path:url(#clippath-6);}.cls-16{clip-path:url(#clippath-5);}</style><clipPath id="clippath"><polygon class="cls-1" points="141.85 182.71 186.2 208.32 221.74 146.76 179.53 117.45 141.85 182.71"></polygon></clipPath><linearGradient id="Adsız_degrade_6" x1="0" y1="292.39" x2="1" y2="292.39" gradientTransform="translate(194.89 6239.79) scale(20.78 -20.78)" gradientUnits="userSpaceOnUse"><stop offset="0" stop-color="#cf8149"></stop><stop offset="1" stop-color="#7e4516"></stop></linearGradient><clipPath id="clippath-1"><polygon class="cls-1" points="0 18.74 82.27 66.24 221.74 146.76 221.74 87.63 69.95 0 0 18.74"></polygon></clipPath><linearGradient id="Adsız_degrade_6-2" y1="292.39" y2="292.39" gradientTransform="translate(67994.7 183.47) rotate(-90) scale(232.17 -232.17)" xlink:href="#Adsız_degrade_6"></linearGradient><clipPath id="clippath-2"><polygon class="cls-1" points="141.85 265.4 186.2 291 221.74 229.45 179.53 200.14 141.85 265.4"></polygon></clipPath><linearGradient id="Adsız_degrade_6-3" y1="292.39" y2="292.39" gradientTransform="translate(194.9 6322.48) scale(20.78 -20.78)" xlink:href="#Adsız_degrade_6"></linearGradient><clipPath id="clippath-3"><polygon class="cls-1" points="0 56.23 0 82.93 0 101.96 0 101.96 0 101.96 0 101.96 102.55 161.17 221.74 229.98 221.74 170.85 69.95 83.21 69.95 71.12 0 30.74 0 56.23"></polygon></clipPath><linearGradient id="Adsız_degrade_6-4" y1="292.39" y2="292.39" gradientTransform="translate(67994.69 248.23) rotate(-90) scale(232.17 -232.17)" xlink:href="#Adsız_degrade_6"></linearGradient><clipPath id="clippath-4"><polygon class="cls-1" points="0 185.17 185.71 292.39 211.31 248.04 69.95 166.43 69.95 154.34 0 113.95 0 185.17"></polygon></clipPath><linearGradient id="Adsız_degrade_6-5" y1="292.39" y2="292.39" gradientTransform="translate(64133.91 315.54) rotate(-90) scale(218.98 -218.98)" xlink:href="#Adsız_degrade_6"></linearGradient><clipPath id="clippath-5"><rect class="cls-1" width="1057.16" height="292.39"></rect></clipPath><clipPath id="clippath-6"><path class="cls-1" d="M893.16,101.41c5.12,.9,9.51,3.53,12.51,7.24l11.51-9.15c-5.36-7.01-13.99-11.73-24.02-12.77v14.68Z"></path></clipPath><linearGradient id="Adsız_degrade_6-6" y1="292.39" y2="292.39" gradientTransform="translate(-5565.65 86.52) rotate(90) scale(22.13 -22.13)" xlink:href="#Adsız_degrade_6"></linearGradient><clipPath id="clippath-7"><rect class="cls-1" width="1057.16" height="292.39"></rect></clipPath></defs><g id="katman_1"><g class="cls-3"><rect class="cls-2" x="122.49" y="105.59" width="118.62" height="114.59" transform="translate(-50.11 239.06) rotate(-60.04)"></rect></g><g class="cls-10"><rect class="cls-5" x="7.9" y="-54.26" width="205.93" height="255.29" transform="translate(7.9 157.49) rotate(-72.75)"></rect></g><g class="cls-13"><rect class="cls-8" x="122.49" y="188.28" width="118.61" height="114.59" transform="translate(-121.75 280.46) rotate(-60.04)"></rect></g><g class="cls-12"><rect class="cls-7" x="-17.15" y="-5.07" width="256.04" height="270.86" transform="translate(-46.51 197.57) rotate(-72.75)"></rect></g><g class="cls-11"><rect class="cls-6" x="-13.14" y="74.2" width="237.59" height="257.94" transform="translate(-120.86 236.8) rotate(-70.97)"></rect></g><g class="cls-16"><path class="cls-4" d="M1028.83,156.76c16.04,0,28.33-11.8,28.33-27.55v-41.52h-15.25v41.32c0,7.48-5.61,13.09-13.08,13.09s-13.09-5.61-13.09-13.09v-41.32h-15.25v41.52c0,15.74,12.2,27.55,28.34,27.55m-71.17-15.54v-53.52h-15.25v67.88h43.58v-14.36h-28.34Zm-67.63-24.5v13.58h16.72c-2.16,7.08-9.05,11.9-17.61,11.9-11.61,0-20.46-8.85-20.46-20.56,0-10.07,6.55-18.03,15.84-20.06v-14.82c-18.22,2.01-31.48,16.38-31.48,34.88,0,19.97,15.25,35.12,35.61,35.12s34.43-14.76,34.43-34.83v-5.21h-33.05Zm-89.37,25.38c-11.51,0-20.27-8.76-20.27-20.46s8.76-20.46,20.27-20.46,20.27,8.76,20.27,20.46-8.75,20.46-20.27,20.46m0,14.66c20.37,0,35.91-15.15,35.91-35.12s-15.54-35.12-35.91-35.12-35.91,15.15-35.91,35.12,15.45,35.12,35.91,35.12m-77.96,0c15.15,0,26.86-8.46,26.86-20.96,0-15.84-18.99-20.56-24.99-21.84-6.2-1.28-12.39-3.35-12.39-7.77,0-3.54,4.33-6.1,10.43-6.1s13.08,2.65,17.02,6.39l7.08-11.61c-5.02-4.82-13.58-8.36-24-8.36-15.65,0-26.17,8.07-26.17,20.26s10.13,18.4,23.71,21.65c7.18,1.77,13.67,3.35,13.67,8.07,0,4.03-5.21,6.69-11.31,6.69-7.18,0-15.35-3.54-20.86-8.66l-7.87,11.61c7.08,6.39,18.3,10.62,28.83,10.62m-83.67-27.15l8.86-25.09,8.85,25.09h-17.71Zm26.86,25.97h16.73l-25.58-67.88h-18l-25.48,67.88h16.33l4.23-11.9h27.55l4.23,11.9Zm-83.57,0h19.87l-30.6-35.22,29.12-32.66h-19.38l-25.28,29.32v-29.32h-15.25v67.88h15.25v-17.81l5.71-6.39,20.56,24.2Zm-74.91-67.88l-16.43,28.92-16.43-28.92h-17.32l25.97,44.57v23.32h15.25v-23.32l25.97-44.57h-17.02Zm-93.7,41.91l8.85-25.09,8.85,25.09h-17.71Zm26.86,25.97h16.73l-25.58-67.88h-18l-25.48,67.88h16.33l4.23-11.9h27.55l4.23,11.9Zm-87.21-13.77h-16.53v-14.66h16.53c4.13,0,7.28,3.25,7.28,7.38s-3.15,7.28-7.28,7.28m-2.26-40.34c3.54,0,6.29,2.66,6.29,6.4s-2.85,6.39-6.29,6.39h-14.27v-12.79h14.27Zm14.46,18.1c4.33-2.75,7.48-8.26,7.48-14.46,0-10.13-7.97-17.41-18.1-17.41h-32.86v67.88h35.02c11.02,0,19.18-7.67,19.18-18.4,0-8.06-4.43-15.15-10.72-17.61"></path></g><g class="cls-15"><rect class="cls-9" x="893.16" y="86.73" width="24.02" height="21.92"></rect></g><g class="cls-14"><path class="cls-4" d="M692.9,191.02h7.67c2.89,0,5.08,2.19,5.08,5.16s-2.19,5.15-5.08,5.15h-7.67v-10.31Zm12.67,24.92h4.58l-8.66-11.34c4.62-.33,8.04-3.84,8.04-8.46,0-4.95-3.84-8.66-8.87-8.66h-11.55v28.46h3.79v-11.3h4.17l8.5,11.3Zm-38.31,0h3.8v-28.46h-3.8v28.46Zm-19.33,0h4.95l-13.9-14.6,13.45-13.86h-4.87l-14.48,14.77v-14.77h-3.8v28.46h3.8v-8.54l3.34-3.47,11.51,12.01Zm-53.7-10.4l5.57-13.98,5.57,13.98h-11.14Zm15.3,10.4h4.17l-11.59-28.46h-4.5l-11.59,28.46h4.04l2.76-6.89h13.94l2.76,6.89Zm-45.12-3.42h-8.74v-9.69h8.74c2.76,0,4.83,2.06,4.83,4.83s-2.06,4.87-4.83,4.87m-.99-21.62c2.48,0,4.29,1.86,4.29,4.33s-1.94,4.33-4.29,4.33h-7.75v-8.66h7.75Zm4.54,9.94c2.06-.99,3.63-3.42,3.63-6.23,0-4.12-3.14-7.14-7.3-7.14h-12.29v28.46h13.28c4.46,0,7.84-3.26,7.84-7.67,0-3.55-2.11-6.56-5.16-7.43"></path><path class="cls-4" d="M784.88,216.22c1.53,0,2.68-1.15,2.68-2.64s-1.16-2.64-2.68-2.64-2.64,1.16-2.64,2.64,1.16,2.64,2.64,2.64m-25.12-10.68l5.57-13.99,5.57,13.99h-11.14Zm15.31,10.4h4.17l-11.59-28.46h-4.5l-11.59,28.46h4.04l2.76-6.89h13.94l2.76,6.89Z"></path><path class="cls-4" d="M824.54,216.22c1.53,0,2.68-1.16,2.68-2.64s-1.16-2.64-2.68-2.64-2.64,1.16-2.64,2.64,1.16,2.64,2.64,2.64m-18.85,8.79h2.93l2.23-6.35h-3.71l-1.44,6.35Zm2.93-8.58c5.98,0,10.6-3.34,10.6-8.21,0-6.14-7.43-8-10.19-8.54-2.85-.58-6.81-1.77-6.81-4.91,0-2.6,2.64-4.41,6.23-4.41,3.18,0,6.11,1.36,7.59,3.01l1.82-2.81c-1.98-2.14-5.36-3.59-9.36-3.59-5.94,0-10.15,3.17-10.15,7.92,0,5.03,4.83,7.34,9.61,8.38,2.72,.62,7.38,1.61,7.38,5.11,0,2.76-2.97,4.66-6.72,4.66s-7.01-1.69-9.16-3.96l-2.02,2.85c2.64,2.76,6.93,4.5,11.18,4.5"></path></g></g></svg> 