<?xml version="1.0" encoding="UTF-8"?>
<svg id="katman_2" data-name="katman 2" xmlns="http://www.w3.org/2000/svg" xmlns:xlink="http://www.w3.org/1999/xlink" viewBox="0 0 1596.86 167.94">
  <defs>
    <style>
      .cls-1 {
        fill: url(#Adsız_degrade_28);
      }

      .cls-2 {
        filter: url(#drop-shadow-1);
      }
    </style>
    <linearGradient id="Adsız_degrade_28" data-name="Adsız degrade 28" x1="795.95" y1="111.99" x2="795.95" y2="77.57" gradientUnits="userSpaceOnUse">
      <stop offset="0" stop-color="#74492f"/>
      <stop offset=".51" stop-color="#e2b390"/>
      <stop offset="1" stop-color="#744c36"/>
    </linearGradient>
    <filter id="drop-shadow-1" x="-18.01" y="-25" width="1661.52" height="232.32" filterUnits="userSpaceOnUse">
      <feOffset dx="14.27" dy="7.14"/>
      <feGaussianBlur result="blur" stdDeviation="10.71"/>
      <feFlood flood-color="#1d1d1b" flood-opacity=".45"/>
      <feComposite in2="blur" operator="in"/>
      <feComposite in="SourceGraphic"/>
    </filter>
  </defs>
  <g id="katman_1" data-name="katman 1">
    <polygon class="cls-1" points="975.78 77.57 966.62 101.24 962.5 111.99 616.11 111.99 616.11 77.57 975.78 77.57"/>
    <g class="cls-2">
      <path d="M0,0v43.18h48.21v124.76h53.27V43.18h48.21V0H0Z"/>
      <path d="M289.09,0v60.45h-74.13V0h-53.27v167.94h53.27v-64.31h74.13v64.31h53.25V0h-53.25Z"/>
      <path d="M487.01,43.18V0h-130.27v167.94h130.27v-43.19h-77v-20.4h69.8v-40.79h-69.8v-20.38h77Z"/>
      <path d="M625.12,111.99l-3.04-4.02c12.51-5.84,23.86-15.62,29.62-30.4,2.51-6.48,3.97-13.9,3.97-22.39,0-44.62-40.07-55.18-65.97-55.18h-90.7v167.94h53.27v-52.78h17.27l38.63,52.78h59.24l-42.3-55.96ZM584.9,74.85h-32.62v-34.55h32.62c13.43,0,17.02,8.65,17.02,17.29s-3.59,17.27-17.02,17.27Z"/>
      <rect x="674.64" y="115.92" width="50.85" height="52.03"/>
      <polygon points="880.47 0 880.47 167.94 829.62 167.94 829.62 64.95 825.58 73.41 805.29 115.92 796.28 134.77 758.83 134.77 749.82 115.92 729.53 73.41 725.49 64.95 725.49 73.41 674.64 73.41 674.64 0 741.08 0 775.55 73.41 777.56 77.66 779.56 73.41 814.03 0 880.47 0"/>
      <polygon points="909.96 115.92 887.67 167.94 940.94 167.94 951.01 142.02 961.01 115.92 909.96 115.92"/>
      <polygon points="1084.89 167.94 1031.62 167.94 1021.55 142.02 963.16 142.02 973.12 115.92 974.61 111.99 978.71 101.24 1005.97 101.24 986.28 50.38 977.39 73.41 928.17 73.41 959.65 0 1012.92 0 1084.89 167.94"/>
      <path d="M1175.57,0h-83.48v167.94h53.25v-52.78h30.23c21.12,0,65.99-8.16,65.99-57.58S1196.69,0,1175.57,0ZM1170.77,74.85h-25.43v-34.55h25.43c11.05,0,17.04,6.23,17.04,17.29s-5.99,17.27-17.04,17.27Z"/>
      <path d="M1383.83,43.18V0h-130.27v167.94h130.27v-43.19h-77.02v-20.4h69.82v-40.79h-69.82v-20.38h77.02Z"/>
      <path d="M1530.89,80.61L1588.72,0h-64.55l-28.79,45.81-31.19-45.81h-64.53l62.13,80.61-70.77,87.33h64.78l39.82-55.67,36.71,55.67h64.53l-65.97-87.33Z"/>
    </g>
  </g>
</svg>