<?xml version="1.0" encoding="UTF-8"?> <!-- Generator: Adobe Illustrator 24.0.0, SVG Export Plug-In . SVG Version: 6.00 Build 0) --> <svg xmlns="http://www.w3.org/2000/svg" xmlns:xlink="http://www.w3.org/1999/xlink" id="katman_1" x="0px" y="0px" viewBox="0 0 101.2 22.4" style="enable-background:new 0 0 101.2 22.4;" xml:space="preserve"> <style type="text/css"> .st0{fill:#FFFFFF;} </style> <title>TeknolojigLogo</title> <path class="st0" d="M34,17.6c-0.5,0-1-0.1-1.4-0.3c-0.4-0.2-0.8-0.4-1.2-0.8c-0.3-0.3-0.6-0.7-0.8-1.1c-0.2-0.4-0.3-0.9-0.3-1.4 v-2.3h-1v-2h1V6.7h2.1v3.1h3.2v2h-3.2v2.3c0,0.2,0,0.4,0.1,0.6c0.1,0.2,0.2,0.3,0.3,0.5c0.1,0.1,0.3,0.3,0.5,0.3 c0.2,0.1,0.4,0.1,0.6,0.1h1.6v2L34,17.6z"></path> <path class="st0" d="M43.9,16.1c-0.2,0.3-0.4,0.5-0.7,0.7c-0.3,0.2-0.5,0.4-0.8,0.5c-0.3,0.2-0.6,0.3-0.9,0.3 c-0.3,0.1-0.7,0.1-1,0.1c-0.6,0-1.1-0.1-1.6-0.3c-0.5-0.2-0.9-0.5-1.3-0.9c-0.4-0.4-0.7-0.8-0.9-1.3c-0.2-0.5-0.3-1.1-0.3-1.7 c0-0.6,0.1-1.2,0.3-1.7c0.2-0.5,0.5-0.9,0.9-1.3c0.4-0.4,0.8-0.7,1.3-0.9c0.5-0.2,1.1-0.3,1.6-0.3c0.3,0,0.7,0,1,0.1 c0.3,0.1,0.6,0.2,0.9,0.3c0.3,0.1,0.6,0.3,0.8,0.5c0.3,0.2,0.5,0.4,0.7,0.7L40,15.7c0.1,0,0.2,0,0.2,0.1h0.2c0.2,0,0.4,0,0.6-0.1 c0.2-0.1,0.4-0.1,0.5-0.2c0.2-0.2,0.5-0.4,0.7-0.6 M41.1,11.6c-0.1,0-0.2-0.1-0.3-0.1h-0.3c-0.3,0-0.6,0-0.8,0.1 c-0.2,0.1-0.5,0.2-0.7,0.4c-0.2,0.2-0.3,0.4-0.4,0.7c-0.1,0.3-0.2,0.6-0.2,0.9c0,0.1,0,0.1,0,0.2s0,0.2,0,0.3c0,0.1,0,0.2,0.1,0.3 c0,0.1,0.1,0.2,0.1,0.2L41.1,11.6L41.1,11.6z"></path> <path class="st0" d="M57.3,17.8h-2.1V9.9h0.5l0.7,0.8c0.3-0.3,0.7-0.5,1.1-0.7c0.9-0.3,1.9-0.3,2.8,0c0.9,0.3,1.6,1,1.9,1.9 c0.2,0.4,0.3,0.9,0.3,1.4v4.5h-2.1v-4.4c0-0.2,0-0.4-0.1-0.6c-0.1-0.2-0.2-0.3-0.3-0.5c-0.1-0.1-0.3-0.2-0.5-0.3 c-0.2-0.1-0.4-0.1-0.6-0.1c-0.2,0-0.4,0-0.6,0.1c-0.2,0.1-0.4,0.2-0.5,0.3c-0.1,0.1-0.3,0.3-0.3,0.5c-0.1,0.2-0.1,0.4-0.1,0.6 C57.3,13.3,57.3,17.8,57.3,17.8z"></path> <path class="st0" d="M72,13.8c0,0.6-0.1,1.1-0.3,1.6c-0.2,0.5-0.5,0.9-0.9,1.3c-0.4,0.4-0.8,0.7-1.3,0.9c-0.5,0.2-1.1,0.3-1.6,0.3 c-1.7,0-3.2-1-3.8-2.5c-0.7-1.6-0.3-3.4,0.9-4.6c0.8-0.8,1.9-1.2,3-1.2c0.6,0,1.1,0.1,1.6,0.3c0.5,0.2,0.9,0.5,1.3,0.9 c0.4,0.4,0.7,0.8,0.9,1.3C71.9,12.6,72.1,13.2,72,13.8L72,13.8z M69.9,13.8c0-0.3-0.1-0.6-0.2-0.9c-0.1-0.3-0.2-0.5-0.4-0.7 c-0.2-0.2-0.4-0.3-0.7-0.4c-0.3-0.1-0.5-0.2-0.8-0.1c-0.3,0-0.6,0.1-0.8,0.1c-0.2,0.1-0.5,0.2-0.7,0.4c-0.2,0.2-0.3,0.4-0.4,0.7 c-0.1,0.3-0.2,0.6-0.2,0.9c0,0.6,0.2,1.1,0.6,1.5c0.2,0.2,0.4,0.3,0.7,0.4c0.3,0.1,0.5,0.2,0.8,0.2c0.3,0,0.6,0,0.8-0.1 c0.2-0.1,0.5-0.2,0.7-0.4c0.2-0.2,0.3-0.4,0.4-0.7C69.8,14.4,69.9,14.1,69.9,13.8z"></path> <polygon class="st0" points="75.2,17.8 73.1,17.8 73.1,6.8 75.2,6.8 75.2,17.8 "></polygon> <path class="st0" d="M84.7,13.8c0,1.1-0.4,2.2-1.2,3c-0.4,0.4-0.8,0.7-1.3,0.9c-1,0.4-2.2,0.4-3.2,0c-1-0.4-1.8-1.2-2.2-2.2 c-0.7-1.6-0.3-3.4,0.9-4.6c0.4-0.4,0.8-0.7,1.3-0.9c0.5-0.2,1.1-0.3,1.6-0.3c0.6,0,1.1,0.1,1.6,0.3c1,0.4,1.8,1.2,2.2,2.2 C84.6,12.7,84.7,13.2,84.7,13.8L84.7,13.8z M82.6,13.8c0-0.3,0-0.6-0.2-0.9c-0.1-0.3-0.3-0.5-0.4-0.7c-0.2-0.2-0.4-0.3-0.7-0.4 c-0.5-0.2-1.1-0.2-1.6,0c-0.2,0.1-0.5,0.2-0.7,0.4c-0.2,0.2-0.3,0.4-0.4,0.7c-0.1,0.3-0.2,0.6-0.2,0.9c0,0.6,0.2,1.1,0.6,1.5 c0.2,0.2,0.4,0.3,0.7,0.4c0.3,0.1,0.5,0.2,0.8,0.2c0.3,0,0.6,0,0.8-0.1c0.2-0.1,0.5-0.2,0.7-0.4c0.2-0.2,0.3-0.4,0.4-0.7 C82.6,14.4,82.6,14.1,82.6,13.8z"></path> <path class="st0" d="M82.8,20.8v-2h1.2c0.3,0,0.5-0.1,0.8-0.2c0.2-0.1,0.4-0.3,0.6-0.4c0.2-0.2,0.3-0.4,0.4-0.6 c0.1-0.2,0.2-0.5,0.2-0.8V9.9H88v6.8l0,0c0,0.7-0.2,1.4-0.6,2c-0.2,0.3-0.4,0.6-0.7,0.8c-0.3,0.2-0.5,0.4-0.8,0.6 c-0.3,0.2-0.7,0.3-1,0.4c-0.4,0.1-0.7,0.1-1.1,0.1L82.8,20.8z"></path> <path class="st0" d="M88.4,7.8c0,0.2,0,0.4-0.1,0.5c-0.1,0.2-0.2,0.3-0.3,0.4c-0.1,0.1-0.3,0.2-0.4,0.3c-0.2,0.1-0.3,0.1-0.5,0.1 c-0.4,0-0.7-0.1-1-0.4c-0.1-0.1-0.2-0.3-0.3-0.4c-0.1-0.2-0.1-0.3-0.1-0.5c0-0.2,0-0.4,0.1-0.5C85.7,7.1,85.8,7,86,6.8 c0.3-0.2,0.6-0.4,1-0.4c0.2,0,0.4,0,0.5,0.1c0.2,0.1,0.3,0.2,0.4,0.3c0.1,0.1,0.2,0.3,0.3,0.4C88.3,7.4,88.4,7.6,88.4,7.8L88.4,7.8z "></path> <path class="st0" d="M92.1,7.8c0,0.2,0,0.4-0.1,0.5c-0.1,0.2-0.2,0.3-0.3,0.4C91.5,8.9,91.4,9,91.2,9c-0.4,0.1-0.7,0.1-1.1,0 c-0.2-0.1-0.3-0.2-0.4-0.3c-0.1-0.1-0.2-0.3-0.3-0.4c-0.1-0.2-0.1-0.3-0.1-0.5c0-0.2,0-0.4,0.1-0.5c0.1-0.2,0.2-0.3,0.3-0.4 c0.1-0.1,0.3-0.2,0.4-0.3c0.4-0.1,0.7-0.1,1.1,0c0.2,0.1,0.3,0.2,0.4,0.3c0.1,0.1,0.2,0.3,0.3,0.4C92,7.4,92,7.6,92.1,7.8z M91.7,17.8h-2.1V9.9h2.1V17.8L91.7,17.8z"></path> <path class="st0" d="M101.2,16.8c0,0.5-0.1,1.1-0.3,1.5c-0.2,0.5-0.5,0.9-0.9,1.3c-0.4,0.4-0.8,0.7-1.3,0.9 c-0.5,0.2-1.1,0.3-1.6,0.3h-1v-2h1c0.3,0,0.6,0,0.8-0.1c0.2-0.1,0.4-0.2,0.6-0.3c0.2-0.1,0.3-0.3,0.4-0.5c0.1-0.2,0.2-0.4,0.2-0.6 c-0.1,0.1-0.2,0.2-0.3,0.3c-0.2,0.1-0.3,0.1-0.5,0.2c-0.2,0-0.4,0.1-0.6,0.1H97c-0.6,0-1.1-0.1-1.6-0.3c-0.5-0.2-0.9-0.5-1.3-0.8 c-0.4-0.4-0.7-0.8-0.9-1.3c-0.2-0.6-0.3-1.1-0.3-1.7c0-0.6,0.1-1.1,0.3-1.6c0.2-0.5,0.5-0.9,0.9-1.3c0.8-0.8,1.9-1.2,3-1.2 c0.3,0,0.5,0,0.8,0.1c0.3,0.1,0.5,0.2,0.8,0.3c0.2,0.1,0.5,0.2,0.7,0.4c0.2,0.2,0.4,0.3,0.6,0.5l0.8-0.9h0.5L101.2,16.8L101.2,16.8z M99.1,13.8c0-0.3-0.1-0.5-0.2-0.8c-0.1-0.3-0.3-0.5-0.4-0.7c-0.2-0.2-0.4-0.4-0.7-0.5c-0.3-0.1-0.5-0.2-0.8-0.2 c-0.3,0-0.5,0-0.8,0.1c-0.2,0.1-0.5,0.2-0.7,0.4c-0.2,0.2-0.3,0.4-0.4,0.7C95,13.2,95,13.5,95,13.8c0,0.3,0,0.6,0.2,0.9 c0.1,0.3,0.2,0.5,0.4,0.7c0.2,0.2,0.4,0.3,0.7,0.4c0.3,0.1,0.5,0.2,0.8,0.1c0.3,0,0.6-0.1,0.8-0.2c0.2-0.1,0.5-0.3,0.7-0.5 c0.2-0.2,0.3-0.4,0.4-0.7C99,14.3,99.1,14.1,99.1,13.8z"></path> <polygon class="st0" points="54.4,9.9 52,9.9 48.9,13.7 48.9,10.9 46.8,13.4 46.8,17.8 48.9,17.8 48.9,16.8 50.4,14.9 52,17.8 54.4,17.8 51.7,13.2 54.4,9.9 "></polygon> <polygon class="st0" points="47.8,11 46.6,12.5 46.4,12.4 47.7,10.8 47.5,10.7 46.2,12.2 46,12.1 47.3,10.6 47.2,10.4 45.9,12 45.7,11.8 47,10.3 46.8,10.1 45.5,11.7 45.3,11.6 46.6,10 46.4,9.9 42.3,14.9 43.9,16.1 48,11.1 47.8,11 "></polygon> <path class="st0" d="M47.8,8.6l-0.6,0.2l0,0l-0.4,0.5l0,0l0,0l0,0l0.6,0.1c0,0.1,0,0.2,0.1,0.3L47.4,10l0,0l0.2,0.2l0,0l0.2-0.2 c0.1,0,0.3,0,0.4,0l0.2,0.6l0,0l0,0l0.5-0.5l0,0l0.1-0.6c0.1-0.1,0.3-0.3,0.4-0.4c0.5-0.5,0.8-1.1,0.8-1.8c0-0.1,0-0.1,0-0.2l0,0 c0,0-0.9-0.1-2,1c0,0-0.1,0.2-0.3,0.4L47.8,8.6z M48.5,8.6c0-0.2,0.2-0.4,0.4-0.4l0,0c0.2,0,0.4,0.1,0.4,0.3c0,0,0,0,0,0 c0,0.2-0.1,0.4-0.3,0.4c0,0,0,0,0,0C48.7,9,48.5,8.8,48.5,8.6z"></path> <path class="st0" d="M26.3,4c-0.8-1.8-2.3-3.2-4.1-3.8C20.5-0.1,18.7,0,17,0.6C13,1.7,9.2,3.3,5.7,5.4c-1.6,1-3,2.2-4.3,3.6 c-1.7,1.9-1.9,4-0.5,5.2c4.4,4.2,14.6,7.8,19.9,8.1c2,0.1,4.1,0,5.3-1.7c1-1.5,1.3-5.3,1.4-7C27.7,10.6,27.6,6.8,26.3,4L26.3,4z M11,14.4L11,14.4c-0.4,0.4-1,0.4-1.4,0.1l-2.5-2.3c-0.3-0.3-0.3-0.9,0-1.2c0,0,0,0,0,0l2.5-2.6c0.4-0.3,1-0.3,1.3,0 c0.3,0.3,0.4,0.9,0,1.2c0,0,0,0,0,0l-1.3,1.3c-0.3,0.3-0.3,0.9,0,1.2l1.2,1.1C11.3,13.4,11.3,14,11,14.4C11,14.4,11,14.4,11,14.4z M17.5,10.7c0,0.2-0.2,0.4-0.4,0.4h-1.8c-0.2,0-0.4,0.2-0.4,0.4V13c0,0.2,0,0.3,0.1,0.5c0.1,0.1,0.2,0.3,0.3,0.4 c0.1,0.1,0.3,0.2,0.4,0.3c0.2,0.1,0.3,0.1,0.5,0.1H17c0.2,0,0.4,0.2,0.4,0.4v0.9c0,0.2-0.2,0.4-0.4,0.4c0,0,0,0,0,0h-0.9 c-0.4,0-0.8-0.1-1.1-0.2c-0.4-0.1-0.7-0.4-0.9-0.6c-0.3-0.3-0.5-0.6-0.6-1c-0.2-0.4-0.2-0.8-0.2-1.1v-1.6c0-0.2-0.2-0.4-0.4-0.4 c0,0,0,0,0,0c-0.2,0-0.4-0.2-0.4-0.4c0,0,0,0,0,0V9.8c0-0.2,0.2-0.4,0.4-0.4c0,0,0,0,0,0c0.2,0,0.4-0.1,0.4-0.4V7.1 c0-0.2,0.2-0.4,0.4-0.4c0,0,0,0,0,0h0.9c0.2,0,0.4,0.2,0.4,0.4c0,0,0,0,0,0V9c0,0.2,0.2,0.4,0.4,0.4H17c0.2,0,0.4,0.2,0.4,0.4 c0,0,0,0,0,0L17.5,10.7L17.5,10.7z M22.8,12.1l-2.5,2.4c-0.4,0.3-1,0.3-1.3-0.1l0,0c-0.3-0.3-0.3-0.9,0-1.2c0,0,0,0,0,0l1.2-1.1 c0.3-0.3,0.4-0.9,0-1.2c0,0,0,0,0,0L19,9.5c-0.3-0.3-0.4-0.9,0-1.2c0,0,0,0,0,0c0.4-0.3,1-0.3,1.3,0l2.5,2.6 C23.2,11.2,23.2,11.7,22.8,12.1L22.8,12.1z"></path> </svg> 